Coordinates
version=1
nRows=17
nColumns=40
inDegrees=yes
endheader
time	pelvis_tilt	pelvis_list	pelvis_rotation	pelvis_tx	pelvis_ty	pelvis_tz	hip_flexion_r	hip_adduction_r	hip_rotation_r	knee_angle_r	knee_angle_r_beta	ankle_angle_r	subtalar_angle_r	mtp_angle_r	hip_flexion_l	hip_adduction_l	hip_rotation_l	knee_angle_l	knee_angle_l_beta	ankle_angle_l	subtalar_angle_l	mtp_angle_l	lumbar_extension	lumbar_bending	lumbar_rotation	arm_flex_r	arm_add_r	arm_rot_r	elbow_flex_r	pro_sup_r	wrist_flex_r	wrist_dev_r	arm_flex_l	arm_add_l	arm_rot_l	elbow_flex_l	pro_sup_l	wrist_flex_l	wrist_dev_l
1760624953.55971503	     16.03077711	      4.24671997	      2.18542861	      0.18669133	      0.85194729	      0.01157213	     80.00000000	     -7.00000000	      0.00000000	     80.00000000	      1.39626340	      0.00000000	      0.00000000	      0.00000000	     80.00000000	     -7.00000000	      0.00000000	     80.00000000	      1.39626340	      0.00000000	      0.00000000	      0.00000000	    -19.74604620	    -10.34432017	    -26.90446689	     35.92184912	     22.74634890	     81.28630105	      0.00000000	     43.24889515	    -70.00000021	    -24.99999983	    -15.48977265	      1.99797380	    -48.77570895	    110.86570340	    179.99984796	      9.16351545	    -24.99999983
1760624953.56971502	     16.03149173	      4.24653759	      2.18524079	      0.18673748	      0.85199658	      0.01152348	     80.00000000	     -7.00000000	      0.00000000	     80.00000000	      1.39626340	      0.00000000	      0.00000000	      0.00000000	     80.00000000	     -7.00000000	      0.00000000	     80.00000000	      1.39626340	      0.00000000	      0.00000000	      0.00000000	    -19.74431996	    -10.34402662	    -26.90491521	     35.92253950	     22.74588435	     81.28630491	      0.00000000	     43.24890940	    -70.00000021	    -24.99999983	    -15.48865330	      1.99447317	    -48.77595534	    110.86746581	    179.99984796	      9.16351545	    -24.99999983
1760624953.57971501	     16.02074383	      4.24163076	      2.21269594	      0.18672813	      0.85197674	      0.01164165	     80.00000000	     -7.00000000	      0.00000000	     80.00000000	      1.39626340	      0.00000000	      0.00000000	      0.00000000	     80.00000000	     -7.00000000	      0.00000000	     80.00000000	      1.39626340	      0.00000000	      0.00000000	      0.00000000	    -19.73119481	    -10.34183018	    -26.89428305	     35.91655772	     22.73280383	     81.28660397	      0.00000000	     43.24961421	    -70.00000021	    -24.99999983	    -15.44292808	      1.85806896	    -48.77213080	    110.96419236	    179.99984796	      9.16351545	    -24.99999983
1760624953.58971500	     16.02191705	      4.24002074	      2.21251762	      0.18675877	      0.85201688	      0.01154967	     80.00000000	     -7.00000000	      0.00000000	     80.00000000	      1.39626340	      0.00000000	      0.00000000	      0.00000000	     80.00000000	     -7.00000000	      0.00000000	     80.00000000	      1.39626340	      0.00000000	      0.00000000	      0.00000000	    -19.72935160	    -10.34301915	    -26.89459699	     35.91743480	     22.73381280	     81.28669107	      0.00000000	     43.24968862	    -70.00000021	    -24.99999983	    -15.44194521	      1.85709758	    -48.77148772	    110.96591506	    179.99984796	      9.16351545	    -24.99999983
1760624953.59971499	     15.99928531	      4.22685949	      2.23614925	      0.18666546	      0.85191016	      0.01164020	     80.00000000	     -7.00000000	      0.00000000	     80.00000000	      1.39626340	      0.00000000	      0.00000000	      0.00000000	     80.00000000	     -7.00000000	      0.00000000	     80.00000000	      1.39626340	      0.00000000	      0.00000000	      0.00000000	    -19.71184481	    -10.35256607	    -26.88294425	     35.92876290	     22.73395788	     81.28769128	      0.00000000	     43.25198758	    -70.00000021	    -24.99999983	    -15.36775039	      1.77202297	    -48.68495457	    111.21849226	    179.99984796	      9.16351545	    -24.99999983
1760624953.60971498	     16.00021188	      4.22759522	      2.23532619	      0.18671554	      0.85195563	      0.01157541	     80.00000000	     -7.00000000	      0.00000000	     80.00000000	      1.39626340	      0.00000000	      0.00000000	      0.00000000	     80.00000000	     -7.00000000	      0.00000000	     80.00000000	      1.39626340	      0.00000000	      0.00000000	      0.00000000	    -19.71018587	    -10.35166427	    -26.88315498	     35.92920364	     22.73407787	     81.28766320	      0.00000000	     43.25199904	    -70.00000021	    -24.99999983	    -15.36762908	      1.77106475	    -48.68464796	    111.22034072	    179.99984796	      9.16351545	    -24.99999983
1760624953.61971498	     16.02047948	      4.24313971	      2.22585014	      0.18692754	      0.85193805	      0.01136266	     80.00000000	     -7.00000000	      0.00000000	     80.00000000	      1.39626340	      0.00000000	      0.00000000	      0.00000000	     80.00000000	     -7.00000000	      0.00000000	     80.00000000	      1.39626340	      0.00000000	      0.00000000	      0.00000000	    -19.68561685	    -10.33591548	    -26.88732977	     35.92741346	     22.72860280	     81.28664434	      0.00000000	     43.25172421	    -70.00000021	    -24.99999983	    -15.35607021	      1.75152722	    -48.68151931	    111.25957875	    179.99984796	      9.16351545	    -24.99999983
1760624953.62971497	     15.99128001	      4.23480854	      2.21314920	      0.18676840	      0.85181121	      0.01156342	     80.00000000	     -7.00000000	      0.00000000	     80.00000000	      1.39626340	      0.00000000	      0.00000000	      0.00000000	     80.00000000	     -7.00000000	      0.00000000	     80.00000000	      1.39626340	      0.00000000	      0.00000000	      0.00000000	    -19.68798379	    -10.37818978	    -26.85398913	     35.94472191	     22.73223720	     81.27809756	      0.00000000	     43.25058769	    -70.00000021	    -24.99999983	    -15.34383250	      1.69104856	    -48.60956202	    111.71277783	    179.99984796	      9.16351545	    -24.99999983
1760624953.63971496	     15.99264060	      4.23564545	      2.21291096	      0.18682149	      0.85188088	      0.01149514	     80.00000000	     -7.00000000	      0.00000000	     80.00000000	      1.39626340	      0.00000000	      0.00000000	      0.00000000	     80.00000000	     -7.00000000	      0.00000000	     80.00000000	      1.39626340	      0.00000000	      0.00000000	      0.00000000	    -19.68591550	    -10.37737370	    -26.85369832	     35.94452800	     22.73381771	     81.27814938	      0.00000000	     43.25065596	    -70.00000021	    -24.99999983	    -15.34270302	      1.68934580	    -48.60983274	    111.71476339	    179.99984796	      9.16351545	    -24.99999983
1760624953.64971495	     16.00826799	      4.23595646	      2.23278932	      0.18697764	      0.85191276	      0.01168418	     80.00000000	     -7.00000000	      0.00000000	     80.00000000	      1.39626340	      0.00000000	      0.00000000	      0.00000000	     80.00000000	     -7.00000000	      0.00000000	     80.00000000	      1.39626340	      0.00000000	      0.00000000	      0.00000000	    -19.67220205	    -10.40060811	    -26.82235010	     35.90243095	     22.73948055	     81.27401838	      0.00000000	     43.25030819	    -70.00000021	    -24.99999983	    -15.27014069	      1.58695783	    -48.62726795	    111.95066827	    179.99984796	      9.16351545	    -24.99999983
1760624953.65971494	     16.02575906	      4.25334998	      2.22120253	      0.18712950	      0.85188901	      0.01147197	     80.00000000	     -7.00000000	      0.00000000	     80.00000000	      1.39626340	      0.00000000	      0.00000000	      0.00000000	     80.00000000	     -7.00000000	      0.00000000	     80.00000000	      1.39626340	      0.00000000	      0.00000000	      0.00000000	    -19.65366551	    -10.38800111	    -26.82654597	     35.91317395	     22.73920835	     81.27323733	      0.00000000	     43.25030712	    -70.00000021	    -24.99999983	    -15.26138316	      1.58344035	    -48.62458113	    111.98951851	    179.99984796	      9.16351545	    -24.99999983
1760624953.66971493	     16.02631283	      4.25386641	      2.22091012	      0.18715948	      0.85197858	      0.01140598	     80.00000000	     -7.00000000	      0.00000000	     80.00000000	      1.39626340	      0.00000000	      0.00000000	      0.00000000	     80.00000000	     -7.00000000	      0.00000000	     80.00000000	      1.39626340	      0.00000000	      0.00000000	      0.00000000	    -19.65225121	    -10.38768833	    -26.82594476	     35.91352423	     22.74049015	     81.27326117	      0.00000000	     43.25035756	    -70.00000021	    -24.99999983	    -15.25995604	      1.58248662	    -48.62452607	    111.99391129	    179.99984796	      9.16351545	    -24.99999983
1760624953.67971492	     16.01709617	      4.24961951	      2.23563294	      0.18702320	      0.85186283	      0.01164610	     80.00000000	     -7.00000000	      0.00000000	     80.00000000	      1.39626340	      0.00000000	      0.00000000	      0.00000000	     80.00000000	     -7.00000000	      0.00000000	     80.00000000	      1.39626340	      0.00000000	      0.00000000	      0.00000000	    -19.66146382	    -10.44121366	    -26.75149579	     35.90309648	     22.72338351	     81.26141914	      0.00000000	     43.24627445	    -70.00000021	    -24.99999983	    -15.11539551	      1.49716517	    -48.63887544	    112.61069855	    179.99984796	      9.16351545	    -24.99999983
1760624953.68971491	     16.03561356	      4.27795902	      2.14664998	      0.18704218	      0.85176015	      0.01161478	     80.00000000	     -7.00000000	      0.00000000	     80.00000000	      1.39626340	      0.00000000	      0.00000000	      0.00000000	     80.00000000	     -7.00000000	      0.00000000	     80.00000000	      1.39626340	      0.00000000	      0.00000000	      0.00000000	    -19.67902979	    -10.47920276	    -26.76722445	     35.95092674	     22.77043448	     81.24039750	      0.00000000	     43.24087244	    -70.00000021	    -24.99999983	    -15.21426451	      1.54452385	    -48.66030696	    113.03224445	    179.99984796	      9.16351545	    -24.99999983
1760624953.69971490	     16.07570293	      4.27825401	      2.21255949	      0.18730145	      0.85196969	      0.01158778	     80.00000000	     -7.00000000	      0.00000000	     80.00000000	      1.39626340	      0.00000000	      0.00000000	      0.00000000	     80.00000000	     -7.00000000	      0.00000000	     80.00000000	      1.39626340	      0.00000000	      0.00000000	      0.00000000	    -19.68787725	    -10.48094140	    -26.75980296	     35.89352951	     22.74557395	     81.23000487	      0.00000000	     43.23741949	    -70.00000021	    -24.99999983	    -15.14031169	      1.46240035	    -48.70400019	    113.22425329	    179.99984796	      9.16351545	    -24.99999983
1760624953.70971489	     16.08907372	      4.28336391	      2.22942357	      0.18709104	      0.85190377	      0.01142177	     80.00000000	     -7.00000000	      0.00000000	     80.00000000	      1.39626340	      0.00000000	      0.00000000	      0.00000000	     80.00000000	     -7.00000000	      0.00000000	     80.00000000	      1.39626340	      0.00000000	      0.00000000	      0.00000000	    -19.72844891	    -10.47702849	    -26.76981955	     35.93881760	     22.74578797	     81.21720750	      0.00000000	     43.23492267	    -70.00000021	    -24.99999983	    -15.04509722	      1.44526145	    -48.67510868	    113.70647450	    179.99984796	      9.16351545	    -24.99999983
1760624953.71971512	     16.13665165	      4.27602169	      2.24010668	      0.18734108	      0.85206066	      0.01158739	     80.00000000	     -7.00000000	      0.00000000	     80.00000000	      1.39626340	      0.00000000	      0.00000000	      0.00000000	     80.00000000	     -7.00000000	      0.00000000	     80.00000000	      1.39626340	      0.00000000	      0.00000000	      0.00000000	    -19.74986608	    -10.49367962	    -26.76169638	     35.90044502	     22.75514036	     81.19980140	      0.00000000	     43.23081486	    -70.00000021	    -24.99999983	    -15.05883700	      1.36520228	    -48.66431794	    114.16452544	    179.99984796	      9.16351545	    -24.99999983
